<!--?xml version="1.0" encoding="utf-8"?-->
<svg viewBox="0 0 512 512" xmlns="http://www.w3.org/2000/svg">
  <defs>
    <linearGradient id="wbg" x1="0" x2="1"><stop offset="0" stop-color="#FFB4B4"></stop><stop offset="1" stop-color="#FF7A7A"></stop></linearGradient>
    <radialGradient id="wshine" cx="30%" cy="22%" r="65%"><stop offset="0" stop-color="#FFF" stop-opacity="0.9"></stop><stop offset="1" stop-color="#FFF" stop-opacity="0"></stop></radialGradient>
  </defs>
  <rect width="512" height="512" rx="64" fill="#F28B82"></rect>
  <g transform="translate(256,260) scale(0.85)">
    <path d="M-120,40 C-100,-40 100,-40 120,40 C100,80 -100,80 -120,40 Z" fill="#FFF5F5"></path>
    <path d="M-112,44 C-94,-28 94,-28 112,44 C94,76 -94,76 -112,44 Z" fill="url(#wbg)"></path>
    <path d="M-120,40 C-40,20 40,20 120,40" fill="#4CAF50" opacity="0.95"></path>
    <ellipse cx="-36" cy="8" rx="7" ry="14" fill="#5D4037" transform="rotate(-18 -36 8)"></ellipse>
    <ellipse cx="8" cy="-6" rx="7" ry="14" fill="#5D4037" transform="rotate(8 8 -6)"></ellipse>
    <ellipse cx="48" cy="22" rx="7" ry="14" fill="#5D4037" transform="rotate(28 48 22)"></ellipse>
    <ellipse cx="-18" cy="-36" rx="86" ry="36" fill="url(#wshine)" transform="rotate(-18 -18 -36)"></ellipse>
  </g>
</svg>
